<mxfile host="app.diagrams.net" modified="2022-06-16T08:16:46.987Z" agent="5.0 (Windows NT 10.0; Win64; x64) AppleWebKit/537.36 (KHTML, like Gecko) Chrome/102.0.5005.124 Safari/537.36 Edg/102.0.1245.41" etag="_N5883eJ0UpWNQgjXJYs" version="20.0.1" type="github">
  <diagram id="GKtPb_r8yJt0VdL1mK9h" name="Page-1">
    <mxGraphModel dx="1422" dy="1886" grid="1" gridSize="10" guides="1" tooltips="1" connect="1" arrows="1" fold="1" page="1" pageScale="1" pageWidth="850" pageHeight="1100" math="0" shadow="0">
      <root>
        <mxCell id="0" />
        <mxCell id="1" parent="0" />
        <mxCell id="nDk1nyGlxnwIBkytpRcf-5" value="" style="rounded=1;whiteSpace=wrap;html=1;dashed=1;fillColor=none;" parent="1" vertex="1">
          <mxGeometry x="230" y="820" width="480" height="270" as="geometry" />
        </mxCell>
        <object placeholders="1" c4Name="Apache Web server" c4Type="DeploymentNode" c4OperationSystem="Apache" c4ScalingFactor="" label="&lt;div style=&quot;text-align: left&quot;&gt;%c4Name%&lt;/div&gt;&lt;div style=&quot;text-align: left&quot;&gt;[%c4OperationSystem%]&lt;/div&gt;&lt;div style=&quot;text-align: right&quot;&gt;%c4ScalingFactor%&lt;/div&gt;" id="JDOhgQU0RPnqJ7KG021f-27">
          <mxCell style="rounded=1;whiteSpace=wrap;html=1;labelBackgroundColor=none;fillColor=#ffffff;fontColor=#000000;align=left;arcSize=5;strokeColor=#000000;verticalAlign=bottom;metaEdit=1;metaData={&quot;c4Type&quot;:{&quot;editable&quot;:false}};points=[[0.25,0,0],[0.5,0,0],[0.75,0,0],[1,0.25,0],[1,0.5,0],[1,0.75,0],[0.75,1,0],[0.5,1,0],[0.25,1,0],[0,0.75,0],[0,0.5,0],[0,0.25,0]];container=0;backgroundOutline=0;" parent="1" vertex="1">
            <mxGeometry x="95" y="520" width="585" height="280" as="geometry" />
          </mxCell>
        </object>
        <object placeholders="1" c4Name="PHP Engine" c4Type="DeploymentNode" c4OperationSystem="PHP" c4ScalingFactor="" label="&lt;div style=&quot;text-align: left&quot;&gt;%c4Name%&lt;/div&gt;&lt;div style=&quot;text-align: left&quot;&gt;[%c4OperationSystem%]&lt;/div&gt;&lt;div style=&quot;text-align: right&quot;&gt;%c4ScalingFactor%&lt;/div&gt;" id="JDOhgQU0RPnqJ7KG021f-26">
          <mxCell style="rounded=1;whiteSpace=wrap;html=1;labelBackgroundColor=none;fillColor=#ffffff;fontColor=#000000;align=left;arcSize=5;strokeColor=#000000;verticalAlign=bottom;metaEdit=1;metaData={&quot;c4Type&quot;:{&quot;editable&quot;:false}};points=[[0.25,0,0],[0.5,0,0],[0.75,0,0],[1,0.25,0],[1,0.5,0],[1,0.75,0],[0.75,1,0],[0.5,1,0],[0.25,1,0],[0,0.75,0],[0,0.5,0],[0,0.25,0]];container=0;backgroundOutline=0;" parent="1" vertex="1">
            <mxGeometry x="210" y="540" width="440" height="240" as="geometry" />
          </mxCell>
        </object>
        <object placeholders="1" c4Name="Drupal Files" c4Type="DeploymentNode" c4OperationSystem="File Storage" c4ScalingFactor="" label="&lt;div style=&quot;text-align: left&quot;&gt;%c4Name%&lt;/div&gt;&lt;div style=&quot;text-align: left&quot;&gt;[%c4OperationSystem%]&lt;/div&gt;&lt;div style=&quot;text-align: right&quot;&gt;%c4ScalingFactor%&lt;/div&gt;" id="JDOhgQU0RPnqJ7KG021f-25">
          <mxCell style="rounded=1;whiteSpace=wrap;html=1;labelBackgroundColor=none;fillColor=#ffffff;fontColor=#000000;align=left;arcSize=5;strokeColor=#000000;verticalAlign=bottom;metaEdit=1;metaData={&quot;c4Type&quot;:{&quot;editable&quot;:false}};points=[[0.25,0,0],[0.5,0,0],[0.75,0,0],[1,0.25,0],[1,0.5,0],[1,0.75,0],[0.75,1,0],[0.5,1,0],[0.25,1,0],[0,0.75,0],[0,0.5,0],[0,0.25,0]];container=0;backgroundOutline=0;" parent="1" vertex="1">
            <mxGeometry x="500" y="890" width="190" height="170" as="geometry" />
          </mxCell>
        </object>
        <object placeholders="1" c4Name="Content metadata" c4Type="DeploymentNode" c4OperationSystem="MySQL Database" c4ScalingFactor="" label="&lt;div style=&quot;text-align: left&quot;&gt;%c4Name%&lt;/div&gt;&lt;div style=&quot;text-align: left&quot;&gt;[%c4OperationSystem%]&lt;/div&gt;&lt;div style=&quot;text-align: right&quot;&gt;%c4ScalingFactor%&lt;/div&gt;" id="JDOhgQU0RPnqJ7KG021f-24">
          <mxCell style="rounded=1;whiteSpace=wrap;html=1;labelBackgroundColor=none;fillColor=#ffffff;fontColor=#000000;align=left;arcSize=5;strokeColor=#000000;verticalAlign=bottom;metaEdit=1;metaData={&quot;c4Type&quot;:{&quot;editable&quot;:false}};points=[[0.25,0,0],[0.5,0,0],[0.75,0,0],[1,0.25,0],[1,0.5,0],[1,0.75,0],[0.75,1,0],[0.5,1,0],[0.25,1,0],[0,0.75,0],[0,0.5,0],[0,0.25,0]];container=0;backgroundOutline=0;" parent="1" vertex="1">
            <mxGeometry x="270" y="885" width="220" height="175" as="geometry" />
          </mxCell>
        </object>
        <mxCell id="JDOhgQU0RPnqJ7KG021f-6" style="rounded=0;orthogonalLoop=1;jettySize=auto;html=1;" parent="1" source="JDOhgQU0RPnqJ7KG021f-1" target="JDOhgQU0RPnqJ7KG021f-5" edge="1">
          <mxGeometry relative="1" as="geometry" />
        </mxCell>
        <mxCell id="JDOhgQU0RPnqJ7KG021f-30" value="&amp;lt;MySQL:3306&amp;gt;" style="edgeLabel;html=1;align=center;verticalAlign=middle;resizable=0;points=[];" parent="JDOhgQU0RPnqJ7KG021f-6" vertex="1" connectable="0">
          <mxGeometry x="0.2602" y="2" relative="1" as="geometry">
            <mxPoint x="-10" y="-14.559999999999999" as="offset" />
          </mxGeometry>
        </mxCell>
        <mxCell id="JDOhgQU0RPnqJ7KG021f-7" style="rounded=0;orthogonalLoop=1;jettySize=auto;html=1;" parent="1" source="JDOhgQU0RPnqJ7KG021f-1" target="JDOhgQU0RPnqJ7KG021f-4" edge="1">
          <mxGeometry relative="1" as="geometry" />
        </mxCell>
        <mxCell id="JDOhgQU0RPnqJ7KG021f-31" value="&amp;lt;Azure File Storage:445&amp;gt;" style="edgeLabel;html=1;align=center;verticalAlign=middle;resizable=0;points=[];" parent="JDOhgQU0RPnqJ7KG021f-7" vertex="1" connectable="0">
          <mxGeometry x="0.2108" y="1" relative="1" as="geometry">
            <mxPoint x="3.5500000000000007" y="-9.04" as="offset" />
          </mxGeometry>
        </mxCell>
        <object placeholders="1" c4Name="Drupal Modules" c4Type="Container" c4Technology="PHP" c4Description="Drupal Core and Contributed Modules" label="&lt;b&gt;%c4Name%&lt;/b&gt;&lt;div&gt;[%c4Type%: %c4Technology%]&lt;/div&gt;&lt;br&gt;&lt;div&gt;%c4Description%&lt;/div&gt;" id="JDOhgQU0RPnqJ7KG021f-1">
          <mxCell style="rounded=1;whiteSpace=wrap;html=1;labelBackgroundColor=none;fillColor=#85BBF0;fontColor=#ffffff;align=center;arcSize=10;strokeColor=#78A8D8;metaEdit=1;metaData={&quot;c4Type&quot;:{&quot;editable&quot;:false}};points=[[0.25,0,0],[0.5,0,0],[0.75,0,0],[1,0.25,0],[1,0.5,0],[1,0.75,0],[0.75,1,0],[0.5,1,0],[0.25,1,0],[0,0.75,0],[0,0.5,0],[0,0.25,0]];" parent="1" vertex="1">
            <mxGeometry x="330" y="690" width="125" height="85" as="geometry" />
          </mxCell>
        </object>
        <mxCell id="JDOhgQU0RPnqJ7KG021f-4" value="&lt;font color=&quot;#ffffff&quot;&gt;&lt;br&gt;&lt;b&gt;&lt;br&gt;Drupal Files&lt;/b&gt;&lt;br&gt;&lt;i&gt;[File Storage]&lt;/i&gt;&lt;br&gt;File Storage that holds Drupal documents and system files&lt;/font&gt;" style="strokeWidth=2;html=1;shape=mxgraph.flowchart.database;whiteSpace=wrap;fillColor=#85BBF0;" parent="1" vertex="1">
          <mxGeometry x="510" y="910" width="170" height="110" as="geometry" />
        </mxCell>
        <mxCell id="JDOhgQU0RPnqJ7KG021f-5" value="&lt;font color=&quot;#ffffff&quot;&gt;&lt;b&gt;&lt;br&gt;&lt;br&gt;Drupal Database&lt;br&gt;&lt;/b&gt;&lt;i&gt;[MySQL Database]&lt;/i&gt;&lt;br&gt;&lt;br&gt;Database that contains Drupal&amp;nbsp; content metadata&lt;br&gt;&lt;/font&gt;" style="strokeWidth=2;html=1;shape=mxgraph.flowchart.database;whiteSpace=wrap;fillColor=#85BBF0;" parent="1" vertex="1">
          <mxGeometry x="282.5" y="915" width="180" height="110" as="geometry" />
        </mxCell>
        <mxCell id="JDOhgQU0RPnqJ7KG021f-9" style="rounded=0;orthogonalLoop=1;jettySize=auto;html=1;entryX=0.5;entryY=0;entryDx=0;entryDy=0;entryPerimeter=0;" parent="1" source="JDOhgQU0RPnqJ7KG021f-8" target="JDOhgQU0RPnqJ7KG021f-1" edge="1">
          <mxGeometry relative="1" as="geometry" />
        </mxCell>
        <object placeholders="1" c4Name="Drupal Presentation Layer" c4Type="Container" c4Technology="Admin Theme" c4Description="User interface for Admin users" label="&lt;b&gt;%c4Name%&lt;/b&gt;&lt;div&gt;[%c4Type%: %c4Technology%]&lt;/div&gt;&lt;br&gt;&lt;div&gt;%c4Description%&lt;/div&gt;" id="JDOhgQU0RPnqJ7KG021f-8">
          <mxCell style="rounded=1;whiteSpace=wrap;html=1;labelBackgroundColor=none;fillColor=#85BBF0;fontColor=#ffffff;align=center;arcSize=10;strokeColor=#78A8D8;metaEdit=1;metaData={&quot;c4Type&quot;:{&quot;editable&quot;:false}};points=[[0.25,0,0],[0.5,0,0],[0.75,0,0],[1,0.25,0],[1,0.5,0],[1,0.75,0],[0.75,1,0],[0.5,1,0],[0.25,1,0],[0,0.75,0],[0,0.5,0],[0,0.25,0]];" parent="1" vertex="1">
            <mxGeometry x="240" y="550" width="135" height="110" as="geometry" />
          </mxCell>
        </object>
        <mxCell id="JDOhgQU0RPnqJ7KG021f-11" style="rounded=0;orthogonalLoop=1;jettySize=auto;html=1;entryX=0.5;entryY=0;entryDx=0;entryDy=0;" parent="1" source="JDOhgQU0RPnqJ7KG021f-10" target="nDk1nyGlxnwIBkytpRcf-9" edge="1">
          <mxGeometry relative="1" as="geometry">
            <mxPoint x="410" y="280" as="targetPoint" />
          </mxGeometry>
        </mxCell>
        <mxCell id="JDOhgQU0RPnqJ7KG021f-32" value="&amp;lt;HTTPS:443&amp;gt;" style="edgeLabel;html=1;align=center;verticalAlign=middle;resizable=0;points=[];" parent="JDOhgQU0RPnqJ7KG021f-11" vertex="1" connectable="0">
          <mxGeometry x="-0.4192" relative="1" as="geometry">
            <mxPoint x="3.87" y="-8.89" as="offset" />
          </mxGeometry>
        </mxCell>
        <mxCell id="JDOhgQU0RPnqJ7KG021f-10" value="&lt;font color=&quot;#ffffff&quot;&gt;&lt;b&gt;UN Azure AD&lt;/b&gt;&lt;br&gt;&lt;br&gt;UN Azure Authentication Directory&lt;/font&gt;" style="rounded=1;whiteSpace=wrap;html=1;strokeColor=#000000;fillColor=#999999;" parent="1" vertex="1">
          <mxGeometry x="282.5" y="160" width="160" height="90" as="geometry" />
        </mxCell>
        <mxCell id="JDOhgQU0RPnqJ7KG021f-17" style="rounded=0;orthogonalLoop=1;jettySize=auto;html=1;entryX=0;entryY=0.5;entryDx=0;entryDy=0;" parent="1" source="JDOhgQU0RPnqJ7KG021f-12" target="JDOhgQU0RPnqJ7KG021f-10" edge="1">
          <mxGeometry relative="1" as="geometry">
            <mxPoint x="105" y="250" as="sourcePoint" />
          </mxGeometry>
        </mxCell>
        <mxCell id="nDk1nyGlxnwIBkytpRcf-21" value="&amp;lt;HTTPS:443&amp;gt;" style="edgeLabel;html=1;align=center;verticalAlign=middle;resizable=0;points=[];" parent="JDOhgQU0RPnqJ7KG021f-17" vertex="1" connectable="0">
          <mxGeometry x="-0.145" y="1" relative="1" as="geometry">
            <mxPoint as="offset" />
          </mxGeometry>
        </mxCell>
        <mxCell id="dxl03862SMSp4wlfeaVz-1" style="edgeStyle=orthogonalEdgeStyle;rounded=0;orthogonalLoop=1;jettySize=auto;html=1;startArrow=none;startFill=0;" parent="1" source="JDOhgQU0RPnqJ7KG021f-12" target="nDk1nyGlxnwIBkytpRcf-9" edge="1">
          <mxGeometry relative="1" as="geometry">
            <Array as="points">
              <mxPoint x="95" y="397" />
            </Array>
          </mxGeometry>
        </mxCell>
        <mxCell id="dxl03862SMSp4wlfeaVz-2" value="&amp;lt;HTTPS:443&amp;gt;" style="edgeLabel;html=1;align=center;verticalAlign=middle;resizable=0;points=[];" parent="dxl03862SMSp4wlfeaVz-1" vertex="1" connectable="0">
          <mxGeometry x="-0.398" y="-1" relative="1" as="geometry">
            <mxPoint as="offset" />
          </mxGeometry>
        </mxCell>
        <mxCell id="JDOhgQU0RPnqJ7KG021f-12" value="Administrator&lt;br&gt;Web browser" style="shape=umlActor;verticalLabelPosition=bottom;verticalAlign=top;html=1;outlineConnect=0;strokeColor=#000000;fillColor=#ffffff;" parent="1" vertex="1">
          <mxGeometry x="80" y="90" width="30" height="60" as="geometry" />
        </mxCell>
        <mxCell id="JDOhgQU0RPnqJ7KG021f-16" style="rounded=0;orthogonalLoop=1;jettySize=auto;html=1;" parent="1" target="JDOhgQU0RPnqJ7KG021f-10" edge="1">
          <mxGeometry relative="1" as="geometry">
            <mxPoint x="490" y="110" as="sourcePoint" />
          </mxGeometry>
        </mxCell>
        <mxCell id="nDk1nyGlxnwIBkytpRcf-22" value="&amp;lt;HTTPS:443&amp;gt;" style="edgeLabel;html=1;align=center;verticalAlign=middle;resizable=0;points=[];" parent="JDOhgQU0RPnqJ7KG021f-16" vertex="1" connectable="0">
          <mxGeometry x="-0.331" y="2" relative="1" as="geometry">
            <mxPoint as="offset" />
          </mxGeometry>
        </mxCell>
        <mxCell id="dxl03862SMSp4wlfeaVz-3" style="edgeStyle=orthogonalEdgeStyle;rounded=0;orthogonalLoop=1;jettySize=auto;html=1;entryX=1;entryY=0.5;entryDx=0;entryDy=0;startArrow=none;startFill=0;" parent="1" target="nDk1nyGlxnwIBkytpRcf-9" edge="1">
          <mxGeometry relative="1" as="geometry">
            <mxPoint x="500" y="110" as="sourcePoint" />
            <Array as="points">
              <mxPoint x="500" y="130" />
              <mxPoint x="500" y="385" />
            </Array>
          </mxGeometry>
        </mxCell>
        <mxCell id="dxl03862SMSp4wlfeaVz-6" value="&amp;lt;HTTPS:443&amp;gt;" style="edgeLabel;html=1;align=center;verticalAlign=middle;resizable=0;points=[];" parent="dxl03862SMSp4wlfeaVz-3" vertex="1" connectable="0">
          <mxGeometry x="-0.3565" y="-1" relative="1" as="geometry">
            <mxPoint as="offset" />
          </mxGeometry>
        </mxCell>
        <mxCell id="JDOhgQU0RPnqJ7KG021f-13" value="Editor&lt;br&gt;Web browser" style="shape=umlActor;verticalLabelPosition=bottom;verticalAlign=top;html=1;outlineConnect=0;strokeColor=#000000;fillColor=#ffffff;" parent="1" vertex="1">
          <mxGeometry x="482.5" y="10" width="30" height="60" as="geometry" />
        </mxCell>
        <mxCell id="dxl03862SMSp4wlfeaVz-4" style="edgeStyle=orthogonalEdgeStyle;rounded=0;orthogonalLoop=1;jettySize=auto;html=1;entryX=1.013;entryY=0.885;entryDx=0;entryDy=0;entryPerimeter=0;startArrow=none;startFill=0;" parent="1" target="nDk1nyGlxnwIBkytpRcf-9" edge="1">
          <mxGeometry relative="1" as="geometry">
            <mxPoint x="770" y="170" as="sourcePoint" />
            <Array as="points">
              <mxPoint x="770" y="170" />
              <mxPoint x="770" y="420" />
            </Array>
          </mxGeometry>
        </mxCell>
        <mxCell id="dxl03862SMSp4wlfeaVz-5" value="&amp;lt;HTTPS:443&amp;gt;" style="edgeLabel;html=1;align=center;verticalAlign=middle;resizable=0;points=[];" parent="dxl03862SMSp4wlfeaVz-4" vertex="1" connectable="0">
          <mxGeometry x="-0.5516" y="-2" relative="1" as="geometry">
            <mxPoint as="offset" />
          </mxGeometry>
        </mxCell>
        <mxCell id="JDOhgQU0RPnqJ7KG021f-14" value="Public User&lt;br&gt;Web browser" style="shape=umlActor;verticalLabelPosition=bottom;verticalAlign=top;html=1;outlineConnect=0;strokeColor=#000000;fillColor=#ffffff;" parent="1" vertex="1">
          <mxGeometry x="752" y="60" width="30" height="60" as="geometry" />
        </mxCell>
        <mxCell id="JDOhgQU0RPnqJ7KG021f-19" value="sdgs.un.org System Deployment&lt;br&gt;&lt;i style=&quot;font-size: 16px ; line-height: 60%&quot;&gt;&lt;span style=&quot;font-weight: normal ; line-height: 110%&quot;&gt;&lt;i style=&quot;font-weight: 700; line-height: 9.6px;&quot;&gt;&lt;span style=&quot;font-weight: 400;&quot;&gt;&lt;a href=&quot;https://sdgs.un.org/&quot;&gt;https://sdgs.un.org/&lt;/a&gt;&lt;/span&gt;&lt;span style=&quot;font-weight: normal; line-height: 17.6px;&quot;&gt;&amp;nbsp;- Prod&lt;br&gt;&lt;a href=&quot;https://sdgs.dev.un.org/&quot;&gt;https://sdgs.dev.un.org&lt;/a&gt;&amp;nbsp;- Dev&lt;br&gt;&lt;i style=&quot;font-weight: 700; line-height: 9.6px;&quot;&gt;&lt;span style=&quot;font-weight: normal; line-height: 17.6px;&quot;&gt;&lt;a href=&quot;https://sdgs.qa.un.org/&quot;&gt;https://sdgs.qa.un.org&lt;/a&gt;&amp;nbsp;- QA&lt;/span&gt;&lt;/i&gt;&lt;/span&gt;&lt;/i&gt;&lt;br&gt;&lt;/span&gt;&lt;/i&gt;" style="text;strokeColor=none;fillColor=none;html=1;fontSize=24;fontStyle=1;verticalAlign=middle;align=center;" parent="1" vertex="1">
          <mxGeometry x="200" y="30" width="100" height="40" as="geometry" />
        </mxCell>
        <mxCell id="nDk1nyGlxnwIBkytpRcf-6" value="Back-end Zone Virtual machine" style="text;html=1;strokeColor=none;fillColor=none;align=center;verticalAlign=middle;whiteSpace=wrap;rounded=0;dashed=1;" parent="1" vertex="1">
          <mxGeometry x="335" y="830" width="175" as="geometry" />
        </mxCell>
        <mxCell id="nDk1nyGlxnwIBkytpRcf-10" style="edgeStyle=orthogonalEdgeStyle;curved=1;rounded=0;orthogonalLoop=1;jettySize=auto;html=1;" parent="1" source="nDk1nyGlxnwIBkytpRcf-9" target="JDOhgQU0RPnqJ7KG021f-8" edge="1">
          <mxGeometry relative="1" as="geometry" />
        </mxCell>
        <mxCell id="nDk1nyGlxnwIBkytpRcf-16" value="&amp;lt;HTTP:80&amp;gt;" style="edgeLabel;html=1;align=center;verticalAlign=middle;resizable=0;points=[];" parent="nDk1nyGlxnwIBkytpRcf-10" vertex="1" connectable="0">
          <mxGeometry x="-0.3258" y="-1" relative="1" as="geometry">
            <mxPoint x="1" y="-15" as="offset" />
          </mxGeometry>
        </mxCell>
        <mxCell id="nDk1nyGlxnwIBkytpRcf-9" value="&lt;font color=&quot;#ffffff&quot;&gt;&lt;b&gt;Azure Application Gateway&lt;/b&gt;&lt;br&gt;&lt;br&gt;L7 load balancer and TLS termination proxy&lt;/font&gt;" style="rounded=1;whiteSpace=wrap;html=1;strokeColor=#000000;fillColor=#999999;" parent="1" vertex="1">
          <mxGeometry x="270" y="340" width="160" height="90" as="geometry" />
        </mxCell>
        <mxCell id="nDk1nyGlxnwIBkytpRcf-19" style="edgeStyle=orthogonalEdgeStyle;rounded=0;orthogonalLoop=1;jettySize=auto;html=1;entryX=0.5;entryY=0;entryDx=0;entryDy=0;entryPerimeter=0;curved=1;" parent="1" target="nDk1nyGlxnwIBkytpRcf-17" edge="1">
          <mxGeometry relative="1" as="geometry">
            <mxPoint x="350" y="430" as="sourcePoint" />
            <Array as="points">
              <mxPoint x="350" y="470" />
              <mxPoint x="550" y="470" />
            </Array>
          </mxGeometry>
        </mxCell>
        <mxCell id="nDk1nyGlxnwIBkytpRcf-20" value="&amp;lt;HTTP:80&amp;gt;" style="edgeLabel;html=1;align=center;verticalAlign=middle;resizable=0;points=[];" parent="nDk1nyGlxnwIBkytpRcf-19" vertex="1" connectable="0">
          <mxGeometry x="-0.0242" y="-3" relative="1" as="geometry">
            <mxPoint as="offset" />
          </mxGeometry>
        </mxCell>
        <mxCell id="nDk1nyGlxnwIBkytpRcf-11" value="" style="rounded=1;whiteSpace=wrap;html=1;dashed=1;fillColor=none;" parent="1" vertex="1">
          <mxGeometry x="200" y="300" width="310" height="150" as="geometry" />
        </mxCell>
        <mxCell id="nDk1nyGlxnwIBkytpRcf-12" value="Access Zone" style="text;html=1;strokeColor=none;fillColor=none;align=center;verticalAlign=middle;whiteSpace=wrap;rounded=0;dashed=1;" parent="1" vertex="1">
          <mxGeometry x="260" y="310" width="80" height="20" as="geometry" />
        </mxCell>
        <mxCell id="nDk1nyGlxnwIBkytpRcf-13" value="" style="rounded=1;whiteSpace=wrap;html=1;dashed=1;fillColor=none;" parent="1" vertex="1">
          <mxGeometry x="50" y="480" width="680" height="330" as="geometry" />
        </mxCell>
        <mxCell id="nDk1nyGlxnwIBkytpRcf-14" value="Application Zone&lt;br&gt;Virtual Machine" style="text;html=1;strokeColor=none;fillColor=none;align=center;verticalAlign=middle;whiteSpace=wrap;rounded=0;dashed=1;" parent="1" vertex="1">
          <mxGeometry x="395" y="490" width="110" height="20" as="geometry" />
        </mxCell>
        <mxCell id="nDk1nyGlxnwIBkytpRcf-18" style="rounded=0;orthogonalLoop=1;jettySize=auto;html=1;entryX=0.75;entryY=0;entryDx=0;entryDy=0;entryPerimeter=0;exitX=0;exitY=0.75;exitDx=0;exitDy=0;exitPerimeter=0;" parent="1" source="nDk1nyGlxnwIBkytpRcf-17" target="JDOhgQU0RPnqJ7KG021f-1" edge="1">
          <mxGeometry relative="1" as="geometry" />
        </mxCell>
        <object placeholders="1" c4Name="Drupal Presentation Layer" c4Type="Container" c4Technology="Theme" c4Description="User interface for public users" label="&lt;b&gt;%c4Name%&lt;/b&gt;&lt;div&gt;[%c4Type%: %c4Technology%]&lt;/div&gt;&lt;br&gt;&lt;div&gt;%c4Description%&lt;/div&gt;" id="nDk1nyGlxnwIBkytpRcf-17">
          <mxCell style="rounded=1;whiteSpace=wrap;html=1;labelBackgroundColor=none;fillColor=#85BBF0;fontColor=#ffffff;align=center;arcSize=10;strokeColor=#78A8D8;metaEdit=1;metaData={&quot;c4Type&quot;:{&quot;editable&quot;:false}};points=[[0.25,0,0],[0.5,0,0],[0.75,0,0],[1,0.25,0],[1,0.5,0],[1,0.75,0],[0.75,1,0],[0.5,1,0],[0.25,1,0],[0,0.75,0],[0,0.5,0],[0,0.25,0]];" parent="1" vertex="1">
            <mxGeometry x="482.5" y="560" width="135" height="110" as="geometry" />
          </mxCell>
        </object>
        <mxCell id="ilQx9SMYHlKJqtAEL6Zz-5" style="rounded=0;orthogonalLoop=1;jettySize=auto;html=1;exitX=0.25;exitY=1;exitDx=0;exitDy=0;exitPerimeter=0;" parent="1" source="JDOhgQU0RPnqJ7KG021f-1" edge="1">
          <mxGeometry relative="1" as="geometry">
            <mxPoint x="464" y="777.01" as="sourcePoint" />
            <mxPoint x="171.87120178225678" y="976.1098080595912" as="targetPoint" />
          </mxGeometry>
        </mxCell>
        <mxCell id="ilQx9SMYHlKJqtAEL6Zz-6" value="&amp;lt;HTTPS:443&amp;gt;" style="edgeLabel;html=1;align=center;verticalAlign=middle;resizable=0;points=[];" parent="ilQx9SMYHlKJqtAEL6Zz-5" vertex="1" connectable="0">
          <mxGeometry x="0.2108" y="1" relative="1" as="geometry">
            <mxPoint x="32.33" y="-41.91" as="offset" />
          </mxGeometry>
        </mxCell>
        <mxCell id="ilQx9SMYHlKJqtAEL6Zz-7" value="&lt;font color=&quot;#ffffff&quot;&gt;SMTP Server&lt;br&gt;[mx-westeurope.un.org]&lt;br&gt;&lt;/font&gt;" style="ellipse;whiteSpace=wrap;html=1;fillColor=#999999;" parent="1" vertex="1">
          <mxGeometry x="60" y="870" width="130" height="80" as="geometry" />
        </mxCell>
        <mxCell id="ilQx9SMYHlKJqtAEL6Zz-8" style="rounded=0;orthogonalLoop=1;jettySize=auto;html=1;exitX=0;exitY=0.75;exitDx=0;exitDy=0;exitPerimeter=0;" parent="1" source="JDOhgQU0RPnqJ7KG021f-1" target="ilQx9SMYHlKJqtAEL6Zz-7" edge="1">
          <mxGeometry relative="1" as="geometry">
            <mxPoint x="371.25" y="785" as="sourcePoint" />
            <mxPoint x="130.43689262272642" y="888.3346681173857" as="targetPoint" />
          </mxGeometry>
        </mxCell>
        <mxCell id="ilQx9SMYHlKJqtAEL6Zz-9" value="&amp;lt;SMTP:25&amp;gt;" style="edgeLabel;html=1;align=center;verticalAlign=middle;resizable=0;points=[];" parent="ilQx9SMYHlKJqtAEL6Zz-8" vertex="1" connectable="0">
          <mxGeometry x="0.2108" y="1" relative="1" as="geometry">
            <mxPoint x="-27.919999999999998" y="19.02" as="offset" />
          </mxGeometry>
        </mxCell>
        <mxCell id="H2leGGakqX-JUJHJOfpY-1" value="&lt;font color=&quot;#ffffff&quot;&gt;&lt;b&gt;JSON api read-only&lt;/b&gt;&lt;/font&gt;" style="rounded=1;whiteSpace=wrap;html=1;strokeColor=#000000;fillColor=#999999;" parent="1" vertex="1">
          <mxGeometry x="90" y="980" width="110" height="70" as="geometry" />
        </mxCell>
      </root>
    </mxGraphModel>
  </diagram>
</mxfile>
